<?xml version="1.0" standalone="no"?>
<!DOCTYPE svg PUBLIC "-//W3C//DTD SVG 20010904//EN"
 "http://www.w3.org/TR/2001/REC-SVG-20010904/DTD/svg10.dtd">
<svg version="1.0" xmlns="http://www.w3.org/2000/svg"
 width="706.000000pt" height="535.000000pt" viewBox="0 0 706.000000 535.000000"
 preserveAspectRatio="xMidYMid meet">

<g transform="translate(0.000000,535.000000) scale(0.100000,-0.100000)"
fill="#000000" stroke="none">
<path d="M0 2675 l0 -2675 3530 0 3530 0 0 2675 0 2675 -3530 0 -3530 0 0
-2675z m1025 2330 c235 -65 365 -354 261 -580 -126 -276 -474 -341 -689 -130
-255 252 -101 687 258 728 43 5 112 -3 170 -18z m5266 -15 c244 -46 400 -307
326 -546 -34 -107 -118 -207 -218 -256 -111 -56 -265 -57 -376 -2 -72 35 -163
125 -196 194 -82 170 -50 358 84 493 103 103 236 144 380 117z m-1393 -79
c161 -48 286 -189 311 -348 11 -72 -3 -538 -20 -643 -12 -76 -43 -149 -88
-205 -37 -47 -366 -379 -631 -639 -559 -546 -750 -735 -1210 -1191 -278 -275
-540 -531 -583 -570 -42 -38 -76 -74 -74 -79 3 -8 359 -13 1168 -16 l1164 -5
66 -31 c82 -39 137 -88 171 -151 105 -195 12 -417 -227 -541 l-70 -37 -1325
-6 c-1235 -5 -1330 -4 -1395 12 -91 22 -157 60 -225 129 -112 113 -136 208
-126 505 13 424 57 529 327 790 63 60 206 199 319 310 113 110 311 302 440
425 270 258 1520 1501 1520 1513 0 4 -496 7 -1103 7 -959 0 -1110 2 -1162 15
-129 34 -243 124 -297 233 -30 60 -33 75 -33 157 0 89 1 92 45 169 66 116 179
197 297 214 25 4 637 6 1360 5 1292 -1 1315 -2 1381 -22z m-3867 -1071 c65
-24 158 -95 199 -151 16 -22 39 -70 51 -106 l22 -66 -2 -1366 -1 -1366 -34
-70 c-45 -96 -121 -176 -204 -217 -62 -31 -74 -33 -167 -33 -89 0 -106 3 -157
28 -74 36 -157 112 -191 174 -58 107 -55 42 -58 1530 l-2 1368 22 57 c73 190
321 294 522 218z m5310 -20 c65 -24 158 -95 199 -151 16 -22 39 -70 51 -106
l22 -66 -2 -1366 -1 -1366 -34 -70 c-45 -96 -121 -176 -204 -217 -62 -31 -74
-33 -167 -33 -89 0 -106 3 -157 28 -74 36 -157 112 -191 174 -58 107 -55 42
-58 1530 l-2 1368 22 57 c73 190 321 294 522 218z m-4136 -41 c25 -12 65 -44
90 -71 69 -77 79 -145 36 -243 -51 -114 -189 -172 -312 -130 -155 53 -212 272
-99 385 80 80 192 103 285 59z m12 -849 c86 -49 133 -129 133 -222 -1 -135
-104 -242 -235 -242 -77 0 -128 18 -177 62 -76 69 -102 158 -74 255 44 151
219 224 353 147z m2847 -4 c182 -106 163 -352 -35 -441 -51 -23 -71 -27 -114
-22 -98 10 -187 73 -222 156 -19 45 -19 147 0 193 22 52 91 115 146 133 69 22
169 14 225 -19z m-63 -830 c52 -18 126 -84 149 -131 53 -110 0 -254 -118 -318
-66 -36 -125 -43 -193 -23 -135 39 -205 170 -165 308 38 131 197 211 327 164z"/>
</g>
</svg>
